<?xml version="1.0" encoding="UTF-8"?>
<svg width="81px" height="86px" viewBox="0 0 81 86" version="1.1" xmlns="http://www.w3.org/2000/svg" xmlns:xlink="http://www.w3.org/1999/xlink">
    <!-- Generator: Sketch 52.1 (67048) - http://www.bohemiancoding.com/sketch -->
    <title>Ask a Question Icon 1@3x</title>
    <desc>Created with Sketch.</desc>
    <g id="Symbols" stroke="none" stroke-width="1" fill="none" fill-rule="evenodd">
        <g id="How-to-Learn" transform="translate(-35.000000, -34.000000)">
            <g id="Ask-a-Question-Icon-1" transform="translate(37.000000, 36.000000)">
                <path d="M67.728,31.867 C67.728,38.418 62.419,43.729 55.864,43.729 C49.313,43.729 44,38.417 44,31.867 C44,25.314 49.313,20 55.864,20 C62.419,20 67.728,25.314 67.728,31.867 Z" id="Shape" stroke="#363A44" stroke-width="3"></path>
                <circle id="Oval" fill="#363A44" fill-rule="nonzero" cx="14.75" cy="23.75" r="1.75"></circle>
                <path d="M76.61,72.7716458 C76.61,84.7716458 34,84.7716458 34,72.7716458 C34,65.8776458 34.148,58.3356458 39.059,54.0156458 C41.871,51.5416458 46.054,50.3946458 50.576,50.0016458 C51.902,49.8866458 55.306,55.8366458 55.306,55.8366458 C55.306,55.8366458 59.133,49.8976458 60.711,50.0466458 C64.862,50.4386458 68.459,51.4426458 71.033,53.5726458 C76.238,57.8806458 76.61,65.6376458 76.61,72.7716458 Z" id="Shape" stroke="#363A44" stroke-width="3"></path>
                <path d="M36.653,31.63 C36.653,31.63 30.52,34.282 23.817,30.539 C19.711,31.076 17.767,31.464 15.731,31.464 C7.045,31.464 0,24.421 0,15.735 C0,7.047 7.046,0 15.731,0 C24.424,0 31.463,7.047 31.463,15.735 C31.463,18.363 30.817,20.839 29.678,23.016 C30.188,27.156 36.653,31.63 36.653,31.63 Z" id="Shape" stroke="#363A44" stroke-width="3"></path>
                <path d="M11,11.1404341 C11.5,5.72443412 18.938,5.57843412 19.202,10.9584341 C19.533,17.6964341 13.937,12.8904341 14.695,19.2024341" id="Shape" stroke="#363A44" stroke-width="3"></path>
            </g>
        </g>
    </g>
</svg>