<?xml version="1.0" encoding="UTF-8"?>
<svg width="22px" height="21px" viewBox="0 0 22 21" version="1.1" xmlns="http://www.w3.org/2000/svg" xmlns:xlink="http://www.w3.org/1999/xlink">
    <!-- Generator: Sketch 52.1 (67048) - http://www.bohemiancoding.com/sketch -->
    <title>Facebook</title>
    <desc>Created with Sketch.</desc>
    <g id="Symbols" stroke="none" stroke-width="1" fill="none" fill-rule="evenodd">
        <g id="Footer---Desktop" transform="translate(-601.000000, -170.000000)" fill-rule="nonzero">
            <g id="Group-5" transform="translate(566.000000, 35.000000)">
                <g id="Group-13" transform="translate(35.000000, 110.000000)">
                    <g id="Group-9" transform="translate(0.000000, 25.000000)">
                        <g id="Facebook">
                            <path d="M10.5094669,20.8939961 C16.3144844,20.8939961 21.0201698,16.2170334 21.0201698,10.4466909 C21.0201698,4.67757696 16.3144844,1.59872116e-14 10.5094669,1.59872116e-14 C4.7050674,1.59872116e-14 3.90798505e-14,4.67757696 3.90798505e-14,10.4466909 C3.90798505e-14,16.2170334 4.7050674,20.8939961 10.5094669,20.8939961" id="Fill-173" fill="#9B9B9B"></path>
                            <path d="M8,8.45520298 L9.0869731,8.45520298 L9.0869731,7.40543551 C9.0869731,6.94228475 9.09871419,6.22851661 9.43673254,5.78625062 C9.7932894,5.3181858 10.2820874,5 11.1237346,5 C12.4943466,5 13.0715115,5.19410562 13.0715115,5.19410562 L12.8002316,6.7942485 C12.8002316,6.7942485 12.3472746,6.66464 11.9245971,6.66464 C11.5019197,6.66464 11.1237346,6.81513328 11.1237346,7.2346717 L11.1237346,8.45520298 L12.856465,8.45520298 L12.7353469,10.017876 L11.1237346,10.017876 L11.1237346,15.4473052 L9.0869731,15.4473052 L9.0869731,10.017876 L8,10.017876 L8,8.45520298" id="Fill-174" fill="#F4F4F5"></path>
                        </g>
                    </g>
                </g>
            </g>
        </g>
    </g>
</svg>