<?xml version="1.0" encoding="UTF-8"?>
<svg width="127px" height="124px" viewBox="0 0 127 124" version="1.1" xmlns="http://www.w3.org/2000/svg" xmlns:xlink="http://www.w3.org/1999/xlink">
    <!-- Generator: sketchtool 52.2 (67145) - http://www.bohemiancoding.com/sketch -->
    <title>FCBE38CD-8CD9-49C4-8067-83E9CAA241C4@3x</title>
    <desc>Created with sketchtool.</desc>
    <g id="Landing-Page---Desktop" stroke="none" stroke-width="1" fill="none" fill-rule="evenodd">
        <g id="Landing-Page---Design" transform="translate(-739.000000, -871.000000)" stroke="#363A44" stroke-width="3">
            <g id="How-to-Learn" transform="translate(385.000000, 718.000000)">
                <g id="Ask-a-Question-Icon-2" transform="translate(356.000000, 154.000000)">
                    <g id="Group" transform="translate(79.000000, 68.000000)">
                        <circle id="Oval" cx="16.103" cy="8.938" r="8.347"></circle>
                        <path d="M30.927,38.5 C30.927,47.5 0.948,47.5 0.948,38.5 C0.948,33.5 1.052,28.201 4.507,25.162 C6.486,23.422 9.429,22.543 12.609,22.266 C13.543,22.186 15.937,26.337 15.937,26.337 C15.937,26.337 18.63,22.141 19.742,22.246 C22.662,22.521 25.193,23.361 27.004,24.859 C30.665,27.89 30.927,33.5 30.927,38.5 Z" id="Shape"></path>
                    </g>
                    <g id="Group" transform="translate(0.000000, 66.000000)">
                        <path d="M23.562,8.669 C23.562,13.277 19.828,17.015 15.214,17.015 C10.606,17.015 6.866,13.278 6.866,8.669 C6.866,4.059 10.605,0.32 15.214,0.32 C19.827,0.32 23.562,4.059 23.562,8.669 Z" id="Shape"></path>
                        <path d="M30.038,38.5 C30.038,46.5 0.059,46.5 0.059,38.5 C0.059,33.5 0.163,28.067 3.618,25.027 C5.597,23.287 8.54,22.341 11.722,22.066 C12.655,21.984 15.05,26.101 15.05,26.101 C15.05,26.101 17.741,21.887 18.852,21.993 C21.773,22.268 24.304,23.236 26.115,24.734 C29.777,27.764 30.038,33.5 30.038,38.5 Z" id="Shape"></path>
                    </g>
                    <g id="Group" transform="translate(36.000000, 35.000000)">
                        <circle id="Oval" cx="16.004" cy="8.357" r="8.347"></circle>
                        <path d="M30.828,38.5 C30.828,46.5 0.849,46.5 0.849,38.5 C0.849,33.5 0.953,27.911 4.409,24.872 C6.387,23.132 9.329,22.107 12.511,21.832 C13.445,21.752 15.839,25.829 15.839,25.829 C15.839,25.829 18.532,21.596 19.642,21.701 C22.564,21.976 25.093,23.089 26.905,24.588 C30.566,27.619 30.828,33.5 30.828,38.5 Z" id="Shape"></path>
                    </g>
                    <g id="Group" transform="translate(76.000000, 5.000000)">
                        <circle id="Oval" cx="15.562" cy="9.252" r="8.347"></circle>
                        <path d="M30.386,39.5 C30.386,47.5 0.407,47.5 0.407,39.5 C0.407,34.5 0.511,28.858 3.966,25.819 C5.945,24.078 8.888,23.029 12.068,22.752 C13.002,22.672 15.396,26.735 15.396,26.735 C15.396,26.735 18.089,22.498 19.201,22.601 C22.121,22.878 24.652,24.039 26.463,25.538 C30.124,28.569 30.386,34.5 30.386,39.5 Z" id="Shape"></path>
                    </g>
                    <g id="Group" transform="translate(1.000000, 0.000000)">
                        <circle id="Oval" cx="15.984" cy="9.215" r="8.348"></circle>
                        <path d="M30.809,39.5 C30.809,47.5 0.83,47.5 0.83,39.5 C0.83,33.5 0.934,28.841 4.39,25.801 C6.367,24.061 9.311,23.002 12.492,22.725 C13.426,22.645 15.821,26.704 15.821,26.704 C15.821,26.704 18.513,22.463 19.623,22.566 C22.545,22.843 25.074,24.022 26.886,25.521 C30.548,28.552 30.809,33.5 30.809,39.5 Z" id="Shape"></path>
                    </g>
                    <path d="M115.152,112.299 C126.255,101.202 126.255,83.2 115.146,72.095 C104.051,60.999 86.047,60.992 74.948,72.098 C63.843,83.197 63.846,101.202 74.944,112.296 C86.052,123.404 104.052,123.404 115.152,112.299 Z" id="Shape" stroke-dasharray="2.7905,4.6503,2.7902,4.6503,2.7902,4.6503"></path>
                </g>
            </g>
        </g>
    </g>
</svg>