<?xml version="1.0" encoding="UTF-8"?>
<svg width="122px" height="89px" viewBox="0 0 122 89" version="1.1" xmlns="http://www.w3.org/2000/svg" xmlns:xlink="http://www.w3.org/1999/xlink">
    <!-- Generator: Sketch 52.1 (67048) - http://www.bohemiancoding.com/sketch -->
    <title>How to Consult Icon 3@3x</title>
    <desc>Created with Sketch.</desc>
    <g id="Symbols" stroke="none" stroke-width="1" fill="none" fill-rule="evenodd">
        <g id="How-to-Consult---Tablet" transform="translate(-32.000000, -333.000000)" stroke="#363A44" stroke-width="3">
            <g id="How-to-Consult-Icon-3" transform="translate(33.000000, 335.000000)">
                <g id="Group" transform="translate(0.000000, 21.000000)">
                    <path d="M33.964,11.887 C33.964,18.438 28.655,23.749 22.1,23.749 C15.549,23.749 10.236,18.437 10.236,11.887 C10.236,5.334 15.549,0.02 22.1,0.02 C28.655,0.02 33.964,5.334 33.964,11.887 Z" id="Shape"></path>
                    <path d="M43.17,53.5 C43.17,65.5 0.56,65.5 0.56,53.5 C0.56,46.606 0.708,39.064 5.619,34.744 C8.431,32.27 12.614,31.123 17.136,30.73 C18.462,30.615 21.866,36.565 21.866,36.565 C21.866,36.565 25.693,30.626 27.271,30.775 C31.422,31.167 35.019,32.171 37.593,34.301 C42.798,38.609 43.17,46.366 43.17,53.5 Z" id="Shape"></path>
                </g>
                <path d="M79.878,31.65 C79.878,31.65 73.745,34.302 67.042,30.559 C62.936,31.096 60.992,31.484 58.956,31.484 C50.27,31.484 43.225,24.441 43.225,15.755 C43.225,7.067 50.271,0.02 58.956,0.02 C67.649,0.02 74.688,7.067 74.688,15.755 C74.688,18.383 74.042,20.859 72.903,23.036 C73.413,27.176 79.878,31.65 79.878,31.65 Z" id="Shape"></path>
                <g id="Group" transform="translate(76.000000, 23.000000)">
                    <path d="M33.964,11.887 C33.964,18.438 28.655,23.749 22.1,23.749 C15.549,23.749 10.236,18.437 10.236,11.887 C10.236,5.334 15.549,0.02 22.1,0.02 C28.655,0.02 33.964,5.334 33.964,11.887 Z" id="Shape"></path>
                    <path d="M43.17,53.5 C43.17,65.5 0.56,65.5 0.56,53.5 C0.56,46.606 0.708,39.064 5.619,34.744 C8.431,32.27 12.614,31.123 17.136,30.73 C18.462,30.615 21.866,36.565 21.866,36.565 C21.866,36.565 25.693,30.626 27.271,30.775 C31.422,31.167 35.019,32.171 37.593,34.301 C42.798,38.609 43.17,46.366 43.17,53.5 Z" id="Shape"></path>
                </g>
                <polyline id="Shape" points="49.976 14 54.976 21 66.976 11"></polyline>
            </g>
        </g>
    </g>
</svg>