<?xml version="1.0" encoding="UTF-8"?>
<svg width="22px" height="21px" viewBox="0 0 22 21" version="1.1" xmlns="http://www.w3.org/2000/svg" xmlns:xlink="http://www.w3.org/1999/xlink">
    <!-- Generator: sketchtool 52.2 (67145) - http://www.bohemiancoding.com/sketch -->
    <title>A7C4165E-4312-41A8-BF9C-0428A1FF3570</title>
    <desc>Created with sketchtool.</desc>
    <g id="Landing-Page---Desktop" stroke="none" stroke-width="1" fill="none" fill-rule="evenodd">
        <g id="Landing-Page---Design" transform="translate(-658.000000, -3206.000000)" fill-rule="nonzero">
            <g id="Group-10" transform="translate(0.000000, 2026.000000)">
                <g id="Footer---Redesign" transform="translate(0.000000, 1010.000000)">
                    <g id="Group-5" transform="translate(566.000000, 35.000000)">
                        <g id="Group-13" transform="translate(35.000000, 110.000000)">
                            <g id="Group-9" transform="translate(0.000000, 25.000000)">
                                <g id="LinkedIn" transform="translate(57.000000, 0.000000)">
                                    <path d="M10.5100849,20.8946103 C16.3151024,20.8946103 21.0201698,16.2164191 21.0201698,10.4466909 C21.0201698,4.67757696 16.3151024,1.95399252e-14 10.5100849,1.95399252e-14 C4.70444945,1.95399252e-14 -2.48689958e-14,4.67757696 -2.48689958e-14,10.4466909 C-2.48689958e-14,16.2164191 4.70444945,20.8946103 10.5100849,20.8946103" id="Fill-204" fill="#9B9B9B"></path>
                                    <path d="M15.3815514,11.4652293 L15.3815514,15.3195395 L13.1147429,15.3195395 L13.1147429,11.7233677 C13.1147429,10.8199801 12.7868735,10.2034533 11.966364,10.2034533 C11.3400091,10.2034533 10.9672648,10.6189472 10.8032809,11.0208675 C10.7434805,11.1645525 10.7280878,11.3645431 10.7280878,11.565673 L10.7280878,15.3195395 L8.46051713,15.3195395 C8.46051713,15.3195395 8.49105664,9.22880488 8.46051713,8.59775936 L10.7278665,8.59775936 L10.7278665,9.55054478 C10.7232684,9.55767086 10.7172933,9.56535441 10.7129656,9.57226235 L10.7278665,9.57226235 L10.7278665,9.55054478 C11.0291061,9.0931913 11.5670883,8.43984649 12.7712596,8.43984649 C14.2631464,8.43982225 15.3815514,9.40055785 15.3815514,11.4652293 Z M6.30560013,5 C5.51628037,5 5,5.55699888 5,6.28947138 C5,7.00598195 5.50134365,7.57988486 6.27497609,7.57988486 L6.29038819,7.57988486 C7.09499495,7.57988486 7.59538785,7.00608962 7.59538785,6.28947138 C7.58022594,5.55699888 7.09499495,5 6.30560013,5 Z M5,15.3195395 L7.59538785,15.3195395 L7.59538785,8.43984649 L5,8.43984649 L5,15.3195395 Z" fill="#F4F4F5"></path>
                                </g>
                            </g>
                        </g>
                    </g>
                </g>
            </g>
        </g>
    </g>
</svg>