<?xml version="1.0" encoding="UTF-8"?>
<svg width="68px" height="45px" viewBox="0 0 68 45" version="1.1" xmlns="http://www.w3.org/2000/svg" xmlns:xlink="http://www.w3.org/1999/xlink">
    <!-- Generator: Sketch 52.1 (67048) - http://www.bohemiancoding.com/sketch -->
    <title>SOTER_1_Black</title>
    <desc>Created with Sketch.</desc>
    <g id="Symbols" stroke="none" stroke-width="1" fill="none" fill-rule="evenodd">
        <g id="Soter-Logo/Black" fill="#4A4A4A">
            <g id="SOTER_1_Black">
                <path d="M40.4888648,4.68191513 C45.4093192,4.83820977 49.7869635,6.35414727 53.622606,9.22932584 C56.4207254,11.2920937 58.660676,13.8703526 60.3428619,16.9645044 C61.6790721,19.4334776 62.5197608,21.988433 62.8657366,24.6293705 C62.9130254,25.0669151 62.9522305,25.5120937 62.9833522,25.965308 L67.6524083,25.965308 C67.6208825,25.5120937 67.597036,25.0669151 67.5812731,24.6293705 C67.0627136,19.1598616 64.8542889,14.1672723 60.9559989,9.65120084 C56.6959702,4.71325442 51.5083546,1.68981692 45.3935563,0.580084772 C41.5894396,-0.200986656 37.7691558,-0.193352728 33.9339174,0.603388344 C30.0356274,1.4005312 26.5378771,2.93173656 23.4410706,5.19780799 L23.4410706,5.22111156 C19.7941789,7.79977227 16.9095655,11.1357991 14.7876347,15.2299955 C13.2315521,18.2301294 12.2962859,21.3632544 11.9818359,24.6293705 C11.9030214,25.0669151 11.8638162,25.5120937 11.8638162,25.965308 L16.5086217,25.965308 C16.5559104,25.5120937 16.6189621,25.0669151 16.6973724,24.6293705 C17.0433482,21.8948169 17.9236464,19.2615133 19.3382669,16.7302633 C21.2403253,13.2608437 23.8028093,10.4873169 27.0253149,8.40887942 C30.9236049,5.78361156 35.4111854,4.54129013 40.4888648,4.68191513 Z M54.6601291,18.2301294 C54.1411655,16.8395491 53.5361121,15.5269151 52.8445647,14.2922276 C50.4550686,10.4013348 45.9517251,8.07298656 39.3337261,7.30718299 C42.5558275,9.04169192 45.2597736,11.4873616 47.4447561,14.6437901 C49.6612643,17.7692812 50.9974745,21.0976741 51.4533865,24.6293705 C51.500271,25.0669151 51.5398804,25.5120937 51.5714062,25.965308 L56.2869428,25.965308 C56.2400582,25.5120937 56.2004488,25.0669151 56.1693272,24.6293705 C55.902166,22.4416473 55.3989652,20.3085669 54.6601291,18.2301294 Z M26.6712556,0.0645937008 C24.3294523,0.220486558 22.0498924,0.642763344 19.8333841,1.3302187 C16.6108785,2.33026334 13.7028229,3.84620084 11.1092172,5.87722763 C7.77677535,8.39320977 5.15164381,11.6123169 3.23382254,15.5345491 C1.75615035,18.4724062 0.844326371,21.5038794 0.498754783,24.6293705 C0.467228954,25.0669151 0.435703125,25.5120937 0.404177296,25.965308 L5.0966757,25.965308 C5.11243862,25.5120937 5.15932318,25.0669151 5.23813776,24.6293705 C5.4580102,23.1761116 5.81166534,21.7381205 6.29910316,20.3162008 C9.85182159,11.143433 16.6424043,4.3930312 26.6712556,0.0645937008 Z" id="Fill-1"></path>
                <path d="M67.8375215,30.6 C67.6487707,30.5686607 67.4523406,30.5449554 67.2478268,30.5292857 C67.0590761,30.4983482 66.8315242,30.4826786 66.564363,30.4826786 C65.7151865,30.4983482 64.9371452,30.6546429 64.229835,30.9515625 C63.5067618,31.2480804 62.9409136,31.6546875 62.5322903,32.1701786 L62.5322903,30.7872321 L58.9480461,30.7872321 L58.9480461,44.6166964 L62.6737524,44.6166964 L62.6737524,35.9204464 C62.8309774,35.6391964 63.0670169,35.3426786 63.3810627,35.0296875 C63.7112755,34.7175 64.0960523,34.4595536 64.5362014,34.2566518 C64.9921134,34.0376786 65.5033976,33.9207589 66.0688417,33.9050893 C66.3360029,33.9050893 66.5878053,33.9207589 66.8234407,33.9516964 C67.0752431,33.9673661 67.2716733,33.9987054 67.4131354,34.0453125 L67.8375215,30.6 Z M47.7010045,34.2329464 C48.2353268,33.7483929 48.9034319,33.4984821 49.7053197,33.4828125 C50.2238791,33.4984821 50.6797911,33.6158036 51.0726515,33.834375 C51.4655118,34.0690179 51.7876411,34.3735714 52.0394436,34.7484375 C52.2750789,35.1080357 52.416541,35.4909375 52.4638297,35.8975446 L46.7107701,35.8975446 C46.8203021,35.2566964 47.1509192,34.7018304 47.7010045,34.2329464 Z M49.7053197,30.4826786 C48.3218208,30.4983482 47.1270727,30.8422768 46.1210754,31.5136607 C45.098911,32.1701786 44.3131904,33.0372321 43.7631051,34.115625 C43.2126156,35.2096875 42.937775,36.405 42.937775,37.7019643 C42.937775,39.1552232 43.2603085,40.4208482 43.9045671,41.4992411 C44.533467,42.5776339 45.3899187,43.41375 46.4747305,44.0071875 C47.5749011,44.6014286 48.8246173,44.8979464 50.2238791,44.8979464 C51.308691,44.8979464 52.3615729,44.6874107 53.3837372,44.2651339 C54.3897345,43.8432589 55.2381027,43.23375 55.9300542,42.4370089 L53.8077192,40.3035268 C53.4779106,40.6944643 53.013915,41.0540625 52.4169452,41.3819196 C51.803404,41.7101786 51.0960938,41.8901786 50.2946102,41.9211161 C49.2886129,41.8901786 48.4398406,41.5771875 47.747889,40.98375 C47.0721046,40.3899107 46.6711607,39.6004018 46.5454616,38.6160268 L56.189536,38.6160268 C56.2206577,38.4601339 56.2445041,38.2881696 56.2602671,38.1005357 C56.27603,37.9285714 56.2837093,37.7489732 56.2837093,37.5613393 C56.2679464,36.264375 55.977343,35.0847321 55.4110906,34.0220089 C54.8610053,32.9592857 54.0987269,32.1079018 53.1242554,31.4670536 C52.134021,30.8266071 50.9938369,30.4983482 49.7053197,30.4826786 Z M41.004595,33.9050893 L41.004595,30.7872321 L36.4066741,30.7872321 L36.4066741,26.9196429 L32.6809678,26.9196429 L32.6809678,30.7872321 L28.8137994,30.7872321 L28.8137994,33.9050893 L32.6809678,33.9050893 L32.6809678,38.7570536 C32.6809678,39.7414286 32.7674617,40.561875 32.9400454,41.2179911 C33.0976746,41.8901786 33.3567522,42.4526786 33.7180867,42.9058929 C34.1897616,43.5463393 34.8263409,44.0385268 35.6282286,44.3824554 C36.4454751,44.7259821 37.4126714,44.8979464 38.5286049,44.8979464 C38.9057023,44.8979464 39.3220049,44.8746429 39.7779169,44.8276339 C40.2338289,44.7810268 40.5955676,44.7103125 40.8627288,44.6166964 L40.2734383,41.4755357 C40.1315721,41.5072768 39.9197832,41.5386161 39.6368591,41.5695536 C39.3377679,41.6008929 39.0471644,41.6165625 38.7646445,41.6165625 C38.3087325,41.6165625 37.9231473,41.5542857 37.6086974,41.4289286 C37.2946516,41.3196429 37.0509327,41.1557143 36.8779448,40.9367411 C36.7207199,40.7495089 36.6027001,40.5225 36.5242897,40.2569196 C36.4454751,39.9756696 36.4066741,39.6241071 36.4066741,39.2022321 L36.4066741,33.9050893 L41.004595,33.9050893 Z M1.81556441,40.3975446 L0,43.0465179 C0.833009407,43.655625 1.72907047,44.116875 2.6881832,44.4294643 C3.66265466,44.7416518 4.62944675,44.8979464 5.58815529,44.8979464 C6.57879385,44.8979464 7.49021365,44.7259821 8.32362723,44.3824554 C9.15663664,44.0385268 9.83242108,43.5463393 10.3513847,42.9058929 C10.8541813,42.2803125 11.1136631,41.5229464 11.129426,40.6321875 C11.1136631,39.67875 10.8857071,38.9133482 10.445558,38.3347768 C9.98964605,37.7726786 9.4314772,37.3270982 8.77145568,36.9988393 C8.09567124,36.6705804 7.42756617,36.405 6.76714047,36.2020982 C6.10711894,35.9987946 5.5489501,35.7958929 5.09303811,35.5925893 C4.65288903,35.3736161 4.41725367,35.0923661 4.38572784,34.7484375 C4.40149075,34.3735714 4.59024155,34.0927232 4.95157605,33.9050893 C5.31331473,33.7174554 5.76114318,33.6234375 6.29586974,33.6234375 C6.79866629,33.6391071 7.27802057,33.733125 7.73393256,33.9050893 C8.18984455,34.0766518 8.59846779,34.2952232 8.96020647,34.5612054 L10.7050399,31.8889286 C10.3905899,31.6390179 9.98196668,31.4124107 9.47876594,31.2095089 C8.97556521,30.9905357 8.41780054,30.8185714 7.80466358,30.6932143 C7.20728954,30.5529911 6.6099155,30.4826786 6.01254145,30.4826786 C5.06959582,30.4826786 4.19697704,30.6622768 3.39549346,31.021875 C2.57784279,31.3654018 1.92590482,31.8575893 1.438467,32.4984375 C0.935266263,33.1388839 0.675784439,33.9050893 0.660425702,34.7954464 C0.675784439,35.6705357 0.91182398,36.3736607 1.36773597,36.9048214 C1.80788504,37.4363839 2.36564971,37.8586607 3.04183833,38.1708482 C3.70185985,38.4677679 4.36996492,38.7257143 5.04574936,38.9446875 C5.70617506,39.1475893 6.25626036,39.3741964 6.69640944,39.6241071 C7.15232143,39.8740179 7.38836097,40.2022768 7.40371971,40.6084821 C7.40371971,40.9524107 7.231136,41.225625 6.88516024,41.4289286 C6.55494739,41.6475 6.13824059,41.7648214 5.63544404,41.7804911 C4.91237085,41.7804911 4.2208235,41.6555357 3.5603978,41.405625 C2.88461336,41.1713839 2.30300223,40.8354911 1.81556441,40.3975446 Z M22.2354098,34.4205804 C22.7854951,34.7641071 23.2175606,35.2253571 23.5320105,35.8035268 C23.8306975,36.3816964 23.979839,37.0225446 23.979839,37.7252679 C23.979839,38.413125 23.8306975,39.0459375 23.5320105,39.6241071 C23.2175606,40.1866071 22.7854951,40.6321875 22.2354098,40.9600446 C21.6849203,41.3039732 21.048341,41.4755357 20.3252679,41.4755357 C19.5864318,41.4755357 18.9421732,41.3039732 18.3916837,40.9600446 C17.8415984,40.6321875 17.4172122,40.1866071 17.1185252,39.6241071 C16.8040753,39.0459375 16.6468503,38.413125 16.6468503,37.7252679 C16.6468503,37.0225446 16.8040753,36.3816964 17.1185252,35.8035268 C17.4172122,35.2253571 17.8415984,34.7641071 18.3916837,34.4205804 C18.9421732,34.0927232 19.5864318,33.9207589 20.3252679,33.9050893 C21.048341,33.9207589 21.6849203,34.0927232 22.2354098,34.4205804 Z M26.7387532,41.3586161 C27.383416,40.280625 27.7136288,39.0692411 27.7289876,37.7252679 C27.7136288,36.3660268 27.383416,35.1474107 26.7387532,34.0690179 C26.0944946,32.9749554 25.2218758,32.1079018 24.1217052,31.4670536 C23.0053675,30.8266071 21.7398884,30.4983482 20.3252679,30.4826786 C18.8948844,30.4983482 17.6294053,30.8266071 16.5288305,31.4670536 C15.412897,32.1079018 14.5325989,32.9749554 13.8883402,34.0690179 C13.2436775,35.1474107 12.9215482,36.3660268 12.9215482,37.7252679 C12.9215482,39.0692411 13.2436775,40.280625 13.8883402,41.3586161 C14.5325989,42.4370089 15.412897,43.2964286 16.5288305,43.936875 C17.6294053,44.5620536 18.8948844,44.8822768 20.3252679,44.8979464 C21.7398884,44.8822768 23.0053675,44.5620536 24.1217052,43.936875 C25.2218758,43.2964286 26.0944946,42.4370089 26.7387532,41.3586161 Z" id="Fill-3"></path>
            </g>
        </g>
    </g>
</svg>