<?xml version="1.0" encoding="UTF-8"?>
<svg width="61px" height="40px" viewBox="0 0 61 40" version="1.1" xmlns="http://www.w3.org/2000/svg" xmlns:xlink="http://www.w3.org/1999/xlink">
    <!-- Generator: sketchtool 51.2 (57519) - http://www.bohemiancoding.com/sketch -->
    <title>E496079D-BAC3-44F4-97AF-5D660234E894</title>
    <desc>Created with sketchtool.</desc>
    <defs></defs>
    <g id="Landing-Page-1" stroke="none" stroke-width="1" fill="none" fill-rule="evenodd">
        <g id="Landing-Page-Take-5-Magenta" transform="translate(-170.000000, -25.000000)" fill="#FFFFFF">
            <g id="Soter-Logo" transform="translate(170.000000, 25.000000)">
                <path d="M35.990102,4.16170234 C40.3638393,4.30063091 44.2550787,5.64813091 47.6645387,8.20384519 C50.151756,10.0374166 52.1428231,12.3292023 53.6380995,15.0795595 C54.8258418,17.2742023 55.5731207,19.5452738 55.8806548,21.8927738 C55.9226892,22.2817023 55.9575383,22.6774166 55.985202,23.0802738 L60.1354741,23.0802738 C60.1074511,22.6774166 60.0862543,22.2817023 60.0722428,21.8927738 C59.611301,17.0309881 57.6482568,12.5931309 54.1831101,8.57884519 C50.3964179,4.18955948 45.7852041,1.50205948 40.3498278,0.515630909 C36.9683907,-0.178654806 33.5725829,-0.171869091 30.1634821,0.536345194 C26.6983355,1.24491662 23.5892241,2.60598805 20.8365072,4.62027377 L20.8365072,4.64098805 C17.5948257,6.93313091 15.0307249,9.89848805 13.1445642,13.5377738 C11.7613797,16.2045595 10.9300319,18.9895595 10.6505208,21.8927738 C10.5804634,22.2817023 10.5456144,22.6774166 10.5456144,23.0802738 L14.6743304,23.0802738 C14.7163648,22.6774166 14.7724107,22.2817023 14.8421088,21.8927738 C15.1496429,19.4620595 15.9321301,17.1213452 17.1895706,14.8713452 C18.8802891,11.7874166 21.1580527,9.32205948 24.0225021,7.47455948 C27.4876488,5.14098805 31.4766093,4.03670234 35.990102,4.16170234 Z M48.5867815,16.2045595 C48.1254804,14.9684881 47.5876552,13.8017023 46.9729464,12.7042023 C44.8489498,9.24563091 40.8459779,7.17598805 34.9633121,6.49527377 C37.8274022,8.03705948 40.2309099,10.2109881 42.1731165,13.0167023 C44.1433461,15.7949166 45.3310884,18.7534881 45.7363435,21.8927738 C45.7780187,22.2817023 45.813227,22.6774166 45.84125,23.0802738 L50.032838,23.0802738 C49.9911628,22.6774166 49.9559545,22.2817023 49.9282908,21.8927738 C49.6908142,19.9481309 49.2435247,18.0520595 48.5867815,16.2045595 Z M23.7077827,0.0574166229 C21.6261798,0.195988052 19.5999043,0.571345194 17.6296747,1.18241662 C14.7652253,2.07134519 12.180287,3.41884519 9.87485969,5.22420234 C6.9126892,7.46063091 4.57923895,10.3220595 2.87450893,13.8084881 C1.56102253,16.4199166 0.75051233,19.1145595 0.443337585,21.8927738 C0.415314626,22.2817023 0.387291667,22.6774166 0.359268707,23.0802738 L4.5303784,23.0802738 C4.54438988,22.6774166 4.58606505,22.2817023 4.65612245,21.8927738 C4.85156463,20.6009881 5.16592474,19.3227738 5.59920281,18.0588452 C8.75717474,9.90527377 14.7932483,3.90491662 23.7077827,0.0574166229 Z" id="Fill-1"></path>
                <path d="M60.3000191,27.2 C60.1322406,27.1721429 59.9576361,27.1510714 59.7758461,27.1371429 C59.6080676,27.1096429 59.4057993,27.0957143 59.1683227,27.0957143 C58.4134991,27.1096429 57.7219069,27.2485714 57.0931866,27.5125 C56.4504549,27.7760714 55.9474787,28.1375 55.5842581,28.5957143 L55.5842581,27.3664286 L52.3982632,27.3664286 L52.3982632,39.6592857 L55.7100021,39.6592857 L55.7100021,31.9292857 C55.8497577,31.6792857 56.0595706,31.4157143 56.3387224,31.1375 C56.6322449,30.86 56.9742687,30.6307143 57.3655123,30.4503571 C57.7707674,30.2557143 58.2252423,30.1517857 58.7278593,30.1378571 C58.9653359,30.1378571 59.1891603,30.1517857 59.3986139,30.1792857 C59.6224384,30.1932143 59.7970429,30.2210714 59.922787,30.2625 L60.3000191,27.2 Z M42.4008929,30.4292857 C42.8758461,29.9985714 43.4697173,29.7764286 44.1825064,29.7625 C44.6434481,29.7764286 45.0487032,29.8807143 45.3979124,30.075 C45.7471216,30.2835714 46.0334588,30.5542857 46.2572832,30.8875 C46.4667368,31.2071429 46.5924809,31.5475 46.6345153,31.9089286 L41.5206845,31.9089286 C41.6180463,31.3392857 41.9119281,30.8460714 42.4008929,30.4292857 Z M44.1825064,27.0957143 C42.9527296,27.1096429 41.8907313,27.4153571 40.9965115,28.0121429 C40.0879209,28.5957143 39.3895026,29.3664286 38.9005378,30.325 C38.4112139,31.2975 38.1669111,32.36 38.1669111,33.5128571 C38.1669111,34.8046429 38.4536076,35.9296429 39.0262819,36.8882143 C39.585304,37.8467857 40.3465944,38.59 41.3108716,39.1175 C42.288801,39.6457143 43.3996599,39.9092857 44.6434481,39.9092857 C45.6077253,39.9092857 46.5436203,39.7221429 47.4522109,39.3467857 C48.3464307,38.9717857 49.1005357,38.43 49.7156037,37.7217857 L47.8290838,35.8253571 C47.5359205,36.1728571 47.12348,36.4925 46.5928401,36.7839286 C46.0474702,37.0757143 45.41875,37.2357143 44.7063202,37.2632143 C43.8121003,37.2357143 43.0576361,36.9575 42.442568,36.43 C41.8418707,35.9021429 41.4854762,35.2003571 41.3737436,34.3253571 L49.9462543,34.3253571 C49.9739179,34.1867857 49.9951148,34.0339286 50.0091263,33.8671429 C50.0231378,33.7142857 50.0299639,33.5546429 50.0299639,33.3878571 C50.0159524,32.235 49.7576382,31.1864286 49.2543027,30.2417857 C48.765338,29.2971429 48.0877572,28.5403571 47.2215604,27.9707143 C46.341352,27.4014286 45.327855,27.1096429 44.1825064,27.0957143 Z M36.4485289,30.1378571 L36.4485289,27.3664286 L32.3614881,27.3664286 L32.3614881,23.9285714 L29.0497491,23.9285714 L29.0497491,27.3664286 L25.6122662,27.3664286 L25.6122662,30.1378571 L29.0497491,30.1378571 L29.0497491,34.4507143 C29.0497491,35.3257143 29.1266327,36.055 29.2800404,36.6382143 C29.4201552,37.2357143 29.6504464,37.7357143 29.9716327,38.1385714 C30.3908992,38.7078571 30.9567474,39.1453571 31.6695366,39.4510714 C32.3959779,39.7564286 33.2557079,39.9092857 34.2476488,39.9092857 C34.5828465,39.9092857 34.9528933,39.8885714 35.3581484,39.8467857 C35.7634035,39.8053571 36.084949,39.7425 36.3224256,39.6592857 L35.7986118,36.8671429 C35.6725085,36.8953571 35.4842517,36.9232143 35.2327636,36.9507143 C34.9669048,36.9785714 34.7085906,36.9925 34.4574617,36.9925 C34.0522066,36.9925 33.7094643,36.9371429 33.4299532,36.8257143 C33.1508014,36.7285714 32.9341624,36.5828571 32.7803954,36.3882143 C32.6406399,36.2217857 32.5357334,36.02 32.4660353,35.7839286 C32.3959779,35.5339286 32.3614881,35.2214286 32.3614881,34.8464286 L32.3614881,30.1378571 L36.4485289,30.1378571 Z M1.61383503,35.9089286 L0,38.2635714 C0.740452806,38.805 1.53695153,39.215 2.38949617,39.4928571 C3.25569303,39.7703571 4.11506378,39.9092857 4.96724915,39.9092857 C5.84781675,39.9092857 6.65796769,39.7564286 7.39877976,39.4510714 C8.13923257,39.1453571 8.73992985,38.7078571 9.20123087,38.1385714 C9.64816114,37.5825 9.87881165,36.9092857 9.89282313,36.1175 C9.87881165,35.27 9.6761841,34.5896429 9.28494048,34.0753571 C8.87968537,33.5757143 8.38353529,33.1796429 7.79684949,32.8878571 C7.19615221,32.5960714 6.60228104,32.36 6.01523597,32.1796429 C5.42855017,31.9989286 4.93240009,31.8185714 4.52714498,31.6378571 C4.13590136,31.4432143 3.9264477,31.1932143 3.89842474,30.8875 C3.91243622,30.5542857 4.08021471,30.3046429 4.40140094,30.1378571 C4.72294643,29.9710714 5.12101616,29.8875 5.59632866,29.8875 C6.04325893,29.9014286 6.46935162,29.985 6.87460672,30.1378571 C7.27986182,30.2903571 7.64308248,30.4846429 7.96462798,30.7210714 L9.51559099,28.3457143 C9.23607993,28.1235714 8.87285927,27.9221429 8.42556973,27.7417857 C7.97828019,27.5471429 7.48248937,27.3942857 6.93747874,27.2828571 C6.40647959,27.1582143 5.87548044,27.0957143 5.34448129,27.0957143 C4.5063074,27.0957143 3.73064626,27.2553571 3.01821641,27.575 C2.29141582,27.8803571 1.71191539,28.3178571 1.27863733,28.8875 C0.831347789,29.4567857 0.600697279,30.1378571 0.587045068,30.9292857 C0.600697279,31.7071429 0.810510204,32.3321429 1.21576531,32.8042857 C1.60700893,33.2767857 2.10279974,33.6521429 2.70385629,33.9296429 C3.29054209,34.1935714 3.88441327,34.4228571 4.48511054,34.6175 C5.07215561,34.7978571 5.56112032,34.9992857 5.95236395,35.2214286 C6.35761905,35.4435714 6.56743197,35.7353571 6.58108418,36.0964286 C6.58108418,36.4021429 6.42767645,36.645 6.12014243,36.8257143 C5.8266199,37.02 5.45621386,37.1242857 5.00928359,37.1382143 C4.36655187,37.1382143 3.75184311,37.0271429 3.16479804,36.805 C2.56410077,36.5967857 2.0471131,36.2982143 1.61383503,35.9089286 Z M19.7648087,30.5960714 C20.2537734,30.9014286 20.6378316,31.3114286 20.9173427,31.8253571 C21.1828423,32.3392857 21.3154124,32.9089286 21.3154124,33.5335714 C21.3154124,34.145 21.1828423,34.7075 20.9173427,35.2214286 C20.6378316,35.7214286 20.2537734,36.1175 19.7648087,36.4089286 C19.2754847,36.7146429 18.7096365,36.8671429 18.0669048,36.8671429 C17.4101616,36.8671429 16.8374872,36.7146429 16.3481633,36.4089286 C15.8591986,36.1175 15.4819664,35.7214286 15.2164668,35.2214286 C14.9369558,34.7075 14.7972003,34.145 14.7972003,33.5335714 C14.7972003,32.9089286 14.9369558,32.3392857 15.2164668,31.8253571 C15.4819664,31.3114286 15.8591986,30.9014286 16.3481633,30.5960714 C16.8374872,30.3046429 17.4101616,30.1517857 18.0669048,30.1378571 C18.7096365,30.1517857 19.2754847,30.3046429 19.7648087,30.5960714 Z M23.7677806,36.7632143 C24.3408142,35.805 24.6343367,34.7282143 24.6479889,33.5335714 C24.6343367,32.3253571 24.3408142,31.2421429 23.7677806,30.2835714 C23.1951063,29.3110714 22.4194452,28.5403571 21.4415157,27.9707143 C20.4492156,27.4014286 19.3243452,27.1096429 18.0669048,27.0957143 C16.7954528,27.1096429 15.6705825,27.4014286 14.6922938,27.9707143 C13.7003529,28.5403571 12.9178656,29.3110714 12.3451913,30.2835714 C11.7721577,31.2421429 11.4858206,32.3253571 11.4858206,33.5335714 C11.4858206,34.7282143 11.7721577,35.805 12.3451913,36.7632143 C12.9178656,37.7217857 13.7003529,38.4857143 14.6922938,39.055 C15.6705825,39.6107143 16.7954528,39.8953571 18.0669048,39.9092857 C19.3243452,39.8953571 20.4492156,39.6107143 21.4415157,39.055 C22.4194452,38.4857143 23.1951063,37.7217857 23.7677806,36.7632143 Z" id="Fill-3"></path>
            </g>
        </g>
    </g>
</svg>