<?xml version="1.0" encoding="UTF-8"?>
<svg width="21px" height="21px" viewBox="0 0 21 21" version="1.1" xmlns="http://www.w3.org/2000/svg" xmlns:xlink="http://www.w3.org/1999/xlink">
    <!-- Generator: sketchtool 52.2 (67145) - http://www.bohemiancoding.com/sketch -->
    <title>3BD72853-866D-44B4-A5AD-4C79D55D5728</title>
    <desc>Created with sketchtool.</desc>
    <g id="Landing-Page---Desktop" stroke="none" stroke-width="1" fill="none" fill-rule="evenodd">
        <g id="Landing-Page---Design" transform="translate(-630.000000, -3206.000000)" fill-rule="nonzero">
            <g id="Group-10" transform="translate(0.000000, 2026.000000)">
                <g id="Footer---Redesign" transform="translate(0.000000, 1010.000000)">
                    <g id="Group-5" transform="translate(566.000000, 35.000000)">
                        <g id="Group-13" transform="translate(35.000000, 110.000000)">
                            <g id="Group-9" transform="translate(0.000000, 25.000000)">
                                <g id="Twitter" transform="translate(29.000000, 0.000000)">
                                    <path d="M10.4308949,20.8939961 C16.1912215,20.8939961 20.8605633,16.2170334 20.8605633,10.4466909 C20.8605633,4.67757696 16.1912215,1.59872116e-14 10.4308949,1.59872116e-14 C4.66995501,1.59872116e-14 1.77635684e-14,4.67757696 1.77635684e-14,10.4466909 C1.77635684e-14,16.2170334 4.66995501,20.8939961 10.4308949,20.8939961" id="Fill-169" fill="#9B9B9B"></path>
                                    <path d="M15.9666723,7.00676936 C15.5637177,7.17753316 15.1298657,7.29301369 14.6747717,7.34461139 C15.1395212,7.07925183 15.4961295,6.6584849 15.6641345,6.15725012 C15.2289951,6.40295344 14.7481531,6.58170261 14.2344826,6.6775269 C13.8250911,6.26044552 13.2399702,6 12.5924107,6 C11.3507183,6 10.3433319,6.96131424 10.3433319,8.1468328 C10.3433319,8.31513955 10.3626429,8.47853226 10.4012647,8.63578237 C8.53132384,8.54610063 6.87380308,7.69228161 5.76342509,6.3918968 C5.56967218,6.7100826 5.45895623,7.07925183 5.45895623,7.47237716 C5.45895623,8.2168582 5.85611752,8.8741146 6.45990566,9.25925455 C6.09171076,9.24881214 5.74411418,9.15114511 5.44028901,8.99143789 L5.44028901,9.01785106 C5.44028901,10.0584046 6.21594436,10.9263515 7.24586016,11.1229142 C7.05725683,11.1732834 6.85835434,11.198468 6.65301488,11.198468 C6.50818297,11.198468 6.36656954,11.1855686 6.229462,11.160384 C6.51590733,12.0129745 7.34627696,12.6339897 8.33113394,12.6505746 C7.56127185,13.2267489 6.59057623,13.5701193 5.53684362,13.5701193 C5.35532095,13.5701193 5.17572939,13.5602912 5,13.5406349 C5.99579985,14.1487506 7.17891564,14.5044062 8.44893054,14.5044062 C12.5879048,14.5044062 14.8505011,11.2334807 14.8505011,8.39622167 C14.8505011,8.30285436 14.84857,8.20948713 14.8447077,8.11796261 C15.284353,7.81513326 15.6660656,7.43736446 15.9666723,7.00676936" id="Fill-170" fill="#F4F4F5"></path>
                                </g>
                            </g>
                        </g>
                    </g>
                </g>
            </g>
        </g>
    </g>
</svg>